<svg width="40" height="40" viewBox="0 0 40 40" fill="none" xmlns="http://www.w3.org/2000/svg">
  <path d="M20 0C12.268 0 6 6.268 6 14c0 10.5 14 26 14 26s14-15.5 14-26c0-7.732-6.268-14-14-14z" fill="#FF0000"/>
  <path d="M20 7c-3.866 0-7 3.134-7 7 0 3.866 3.134 7 7 7 3.866 0 7-3.134 7-7 0-3.866-3.134-7-7-7z" fill="#FFFFFF"/>
  <path d="M20 2C13.373 2 8 7.373 8 14c0 9.333 12 24 12 24s12-14.667 12-24c0-6.627-5.373-12-12-12zm0 6c3.314 0 6 2.686 6 6s-2.686 6-6 6-6-2.686-6-6 2.686-6 6-6z" fill="#000000" fillOpacity="0.2"/>
</svg>
